<svg width="16" height="16" viewBox="0 0 16 16" fill="none" xmlns="http://www.w3.org/2000/svg">
<path fill-rule="evenodd" clip-rule="evenodd" d="M7.62068 5.41362C7.64859 5.52726 7.76239 5.59656 7.87831 5.58055C7.98911 5.56524 8.10238 5.55732 8.21757 5.55732C8.26475 5.55732 8.31161 5.55865 8.35812 5.56127C8.46478 5.56728 8.56487 5.50226 8.59362 5.39936L9.72514 1.34936C9.75888 1.22862 9.88852 1.16243 10.0061 1.20591L11.2812 1.67742C11.4027 1.72234 11.4569 1.86383 11.3966 1.97844L9.46354 5.65336C9.40863 5.75774 9.44895 5.88607 9.54763 5.95066C9.69533 6.04735 9.83111 6.15968 9.95241 6.2852C10.0292 6.36467 10.152 6.38398 10.2439 6.3226L13.7241 3.99825C13.8276 3.92916 13.968 3.9623 14.0296 4.07036L14.6832 5.21655C14.7474 5.32916 14.6978 5.47256 14.5778 5.52144L10.6713 7.11199C10.5682 7.15398 10.5155 7.26774 10.5389 7.37661C10.5713 7.52719 10.5883 7.6832 10.5883 7.84304C10.5883 7.85685 10.5882 7.87063 10.5879 7.88438C10.5857 8.00487 10.6719 8.11278 10.7919 8.12392L14.9908 8.51393C15.1184 8.52578 15.2072 8.64606 15.1809 8.77144L14.9131 10.0511C14.8873 10.1741 14.7618 10.2487 14.6414 10.2125L10.4801 8.96143C10.3832 8.9323 10.28 8.9755 10.2246 9.06019C10.1371 9.19404 10.0356 9.31853 9.92203 9.43173C9.83161 9.52188 9.82365 9.67012 9.91445 9.75988L12.9328 12.7437C13.0255 12.8353 13.0157 12.9876 12.9122 13.0667L11.8444 13.8819C11.7457 13.9573 11.6037 13.9333 11.5353 13.8296L9.0985 10.1372C9.04474 10.0557 8.94299 10.0218 8.84866 10.0469C8.64772 10.1002 8.4361 10.1288 8.21757 10.1288V10.1288C8.20817 10.1287 8.20074 10.1367 8.20143 10.1461L8.53787 14.7046C8.54724 14.8315 8.4446 14.9387 8.31734 14.9347L6.95056 14.8924C6.82292 14.8885 6.72698 14.7746 6.74482 14.6481L7.37749 10.1637C7.39175 10.0626 7.33234 9.9664 7.23882 9.92548C7.13335 9.87933 7.03199 9.82594 6.93545 9.76598C6.83501 9.7036 6.70126 9.72139 6.62987 9.81563L3.86065 13.4712C3.78568 13.5702 3.64262 13.585 3.54894 13.5035L2.53825 12.6245C2.43993 12.539 2.43994 12.3863 2.53828 12.3008L6.08741 9.2154C6.16927 9.14423 6.18408 9.02364 6.131 8.92903C6.09548 8.86573 6.06297 8.80063 6.03365 8.73391C5.98804 8.63008 5.87554 8.56862 5.76601 8.59803L1.18377 9.82858C1.06221 9.86122 0.938803 9.78267 0.916928 9.65872L0.689837 8.37193C0.667607 8.24596 0.759873 8.12866 0.88753 8.1206L5.64934 7.81982C5.76101 7.81277 5.84734 7.72085 5.85905 7.60958C5.86953 7.50998 5.88664 7.41227 5.90995 7.31687C5.93634 7.20889 5.88704 7.0939 5.78538 7.04892L1.52762 5.16523C1.40897 5.11273 1.36373 4.96773 1.43149 4.85708L2.12139 3.73043C2.18632 3.6244 2.3275 3.59561 2.42876 3.66776L6.17075 6.33399C6.26358 6.40013 6.39122 6.38131 6.46977 6.29872C6.55674 6.20727 6.65133 6.12267 6.75257 6.04585C6.83929 5.98004 6.87324 5.86282 6.82561 5.76494L4.90454 1.81772C4.84793 1.7014 4.90641 1.56181 5.02903 1.52057L6.31876 1.08683C6.43773 1.04682 6.56548 1.11707 6.59542 1.23896L7.62068 5.41362Z" fill="url(#paint0_linear_95_2296)"/>
<circle cx="8" cy="8" r="7.46381" stroke="url(#paint1_radial_95_2296)" stroke-width="1.07239"/>
<defs>
<linearGradient id="paint0_linear_95_2296" x1="7.93604" y1="1.07556" x2="7.93604" y2="14.9348" gradientUnits="userSpaceOnUse">
<stop stop-color="#F7CCDD"/>
<stop offset="1" stop-color="#EC1168"/>
</linearGradient>
<radialGradient id="paint1_radial_95_2296" cx="0" cy="0" r="1" gradientUnits="userSpaceOnUse" gradientTransform="translate(7.97855 8.02156) rotate(0.146952) scale(8.40753 8.49843)">
<stop stop-color="#B5B5B5"/>
<stop offset="1" stop-color="#070707"/>
</radialGradient>
</defs>
</svg>
