<svg width="1044" height="488" viewBox="0 0 1044 488" fill="none" xmlns="http://www.w3.org/2000/svg">
<path fill-rule="evenodd" clip-rule="evenodd" d="M499.173 292.639C499.63 294.49 501.484 295.619 503.373 295.359C505.185 295.109 507.037 294.98 508.921 294.98C509.695 294.98 510.463 295.002 511.226 295.045C512.964 295.143 514.595 294.084 515.066 292.408L533.531 226.674C534.083 224.708 536.193 223.63 538.109 224.335L558.913 231.987C560.902 232.718 561.789 235.035 560.799 236.909L529.276 296.515C528.373 298.222 529.033 300.325 530.651 301.379C533.056 302.948 535.267 304.769 537.243 306.804C538.495 308.093 540.49 308.407 541.987 307.412L598.814 269.663C600.5 268.543 602.781 269.082 603.788 270.838L614.441 289.419C615.496 291.26 614.685 293.609 612.718 294.405L548.984 320.216C547.295 320.9 546.432 322.762 546.816 324.543C547.34 326.979 547.616 329.503 547.616 332.088C547.616 332.305 547.614 332.521 547.61 332.737C547.575 334.706 548.983 336.469 550.944 336.65L619.459 342.98C621.544 343.172 622.994 345.139 622.563 347.187L618.198 367.925C617.776 369.929 615.732 371.145 613.77 370.558L545.838 350.244C544.26 349.773 542.582 350.475 541.677 351.85C540.255 354.013 538.607 356.025 536.764 357.856C535.281 359.33 535.15 361.76 536.642 363.226L585.865 411.625C587.387 413.121 587.227 415.619 585.528 416.91L568.114 430.134C566.505 431.356 564.198 430.965 563.08 429.281L523.303 369.33C522.425 368.007 520.77 367.456 519.235 367.862C515.951 368.731 512.493 369.195 508.921 369.195L508.777 369.194C508.698 369.194 508.635 369.261 508.641 369.34L514.141 443.46C514.295 445.533 512.62 447.282 510.542 447.218L488.238 446.532C486.154 446.468 484.587 444.606 484.88 442.541L495.2 369.781C495.435 368.128 494.463 366.555 492.932 365.889C491.211 365.139 489.556 364.271 487.98 363.296C486.345 362.285 484.171 362.574 483.006 364.104L437.797 423.463C436.574 425.069 434.249 425.31 432.722 423.989L416.241 409.733C414.626 408.336 414.627 405.833 416.241 404.437L474.133 354.378C475.477 353.216 475.72 351.239 474.849 349.69C474.276 348.673 473.751 347.627 473.278 346.555C472.531 344.866 470.7 343.865 468.915 344.342L394.105 364.324C392.123 364.853 390.113 363.573 389.755 361.554L386.055 340.699C385.69 338.642 387.197 336.725 389.282 336.594L467.002 331.711C468.825 331.597 470.234 330.096 470.427 328.28C470.598 326.679 470.874 325.108 471.25 323.574C471.682 321.807 470.875 319.924 469.21 319.191L399.747 288.625C397.803 287.769 397.062 285.394 398.176 283.585L409.421 265.32C410.481 263.597 412.776 263.129 414.426 264.299L475.521 307.597C477.033 308.668 479.107 308.363 480.388 307.023C481.804 305.541 483.344 304.17 484.992 302.925C486.414 301.85 486.971 299.929 486.187 298.328L454.857 234.299C453.927 232.398 454.884 230.112 456.891 229.441L477.934 222.402C479.873 221.753 481.953 222.897 482.443 224.883L499.173 292.639Z" fill="#F7CCDD"/>
<path fill-rule="evenodd" clip-rule="evenodd" d="M923.564 331.238C923.869 332.474 925.107 333.227 926.368 333.054C927.578 332.887 928.815 332.801 930.072 332.801C930.589 332.801 931.102 332.816 931.611 332.844C932.772 332.91 933.861 332.203 934.175 331.083L946.504 287.194C946.872 285.881 948.281 285.162 949.561 285.632L963.451 290.741C964.779 291.23 965.372 292.777 964.71 294.028L943.663 333.826C943.06 334.966 943.501 336.369 944.581 337.073C946.187 338.121 947.663 339.337 948.983 340.695C949.819 341.556 951.151 341.766 952.15 341.102L990.092 315.897C991.218 315.15 992.741 315.509 993.413 316.682L1000.53 329.088C1001.23 330.317 1000.69 331.885 999.376 332.417L956.822 349.651C955.694 350.107 955.118 351.351 955.374 352.54C955.724 354.166 955.908 355.851 955.908 357.577C955.908 357.722 955.907 357.866 955.904 358.011C955.881 359.325 956.821 360.502 958.13 360.623L1003.88 364.849C1005.27 364.978 1006.24 366.291 1005.95 367.658L1003.03 381.505C1002.75 382.843 1001.39 383.655 1000.08 383.263L954.721 369.7C953.668 369.385 952.547 369.853 951.943 370.772C950.994 372.216 949.893 373.559 948.663 374.782C947.672 375.766 947.585 377.388 948.581 378.367L981.447 410.683C982.463 411.681 982.356 413.349 981.222 414.211L969.595 423.04C968.52 423.856 966.98 423.595 966.234 422.471L939.675 382.443C939.089 381.559 937.984 381.192 936.959 381.463C934.766 382.043 932.457 382.353 930.072 382.353C929.968 382.353 929.885 382.441 929.892 382.546L933.558 431.939C933.66 433.322 932.542 434.49 931.155 434.448L916.263 433.99C914.871 433.947 913.825 432.704 914.021 431.325L920.911 382.744C921.068 381.641 920.419 380.59 919.397 380.145C918.247 379.644 917.143 379.065 916.09 378.415C914.998 377.739 913.547 377.932 912.769 378.953L882.584 418.587C881.767 419.659 880.215 419.82 879.195 418.938L868.191 409.419C867.113 408.487 867.114 406.816 868.191 405.883L906.845 372.46C907.743 371.684 907.905 370.364 907.323 369.33C906.94 368.651 906.59 367.952 906.274 367.237C905.775 366.109 904.553 365.441 903.361 365.759L853.412 379.101C852.088 379.454 850.746 378.599 850.507 377.251L848.036 363.327C847.793 361.953 848.799 360.673 850.191 360.586L902.083 357.326C903.301 357.249 904.242 356.247 904.371 355.035C904.484 353.966 904.669 352.917 904.92 351.892C905.209 350.712 904.669 349.455 903.558 348.966L857.178 328.557C855.88 327.986 855.386 326.4 856.129 325.193L863.638 312.997C864.346 311.847 865.878 311.535 866.98 312.315L907.772 341.225C908.781 341.94 910.166 341.736 911.021 340.841C911.967 339.852 912.995 338.937 914.095 338.105C915.045 337.388 915.416 336.105 914.893 335.036L893.975 292.285C893.354 291.015 893.992 289.489 895.333 289.041L909.383 284.341C910.678 283.908 912.066 284.672 912.393 285.998L923.564 331.238Z" fill="#F7CCDD"/>
<circle cx="504.5" cy="334.72" r="127.5" stroke="black" stroke-width="50"/>
<path fill-rule="evenodd" clip-rule="evenodd" d="M531.5 141.72L470.5 146.22L438 177.72L474.5 162.72L509.5 159.72L577 170.22L631.5 208.22L653.703 251.859L650 251.22L673 367.22H792.5L803 333.22L814 296.22L824.5 282.22L836 267.72L847.916 255.393C899.395 258.213 942.613 264.02 1002 274.22C996.518 242.199 996.126 224.241 1002 192.22C909.542 161.885 856.042 152.144 758 146.22V250.027L745.5 257.72L705 260.72L674.786 255.501L665 230.22L648 199.22L623.5 176.22L598 159.72L566 146.22L531.5 141.72Z" fill="url(#paint0_linear_311_3618)"/>
<path d="M414.957 192.22C412.728 194.071 415.611 197.36 418 195.72C424.519 191.244 428.053 188.497 435 184.72C442.681 180.543 447.281 178.702 455.5 175.72C460.318 173.971 463.008 172.883 468 171.72C473.379 170.466 476.504 170.26 482 169.72C494.243 168.516 501.233 168.799 513.5 169.72C527.905 170.801 536.058 171.938 550 175.72C560.192 178.484 566.122 179.864 575.5 184.72C585.801 190.053 590.535 194.859 599.5 202.22C610.069 210.897 616.392 215.594 625 226.22C633.495 236.706 637.084 243.59 643 255.72C647.609 265.171 649.729 270.726 653 280.72C657.612 294.81 658.785 303.144 661.5 317.72C663.56 328.781 665.837 345.984 665.992 347.156C665.998 347.201 666.004 347.242 666.011 347.287L668.83 365.005C669.216 367.433 671.309 369.22 673.767 369.22H789.742C791.968 369.22 793.926 367.748 794.545 365.61L799 350.22L806.467 326.324C806.489 326.254 806.509 326.195 806.534 326.127C806.999 324.845 812.199 310.595 816.5 301.72C821.305 291.803 823.823 285.986 830.5 277.22C835.689 270.406 838.963 266.753 845.5 261.22C852.941 254.92 849.052 259.273 866.5 247.72C877.439 240.476 902.954 236.48 925.526 232.99C931.218 232.109 930.681 226.72 924.921 226.72H888.769C888.59 226.72 888.411 226.729 888.233 226.749C886.566 226.934 877.448 227.973 871.5 229.22C862.732 231.056 857.545 231.779 849.5 235.72C839.995 240.375 835.752 245.014 828 252.22C823.246 256.639 820.493 259.103 816.5 264.22C811.864 270.159 810.05 274.074 806.5 280.72C801.585 289.919 795.929 304.759 795.103 306.947C795.031 307.135 794.978 307.309 794.932 307.505C794.435 309.584 791.37 322.543 790 331.22C788.59 340.151 787.685 352.714 787.269 359.472C787.105 362.134 784.904 364.22 782.237 364.22H680.13C677.517 364.22 675.345 362.208 675.145 359.603L673.5 338.22L669.516 306.845C669.505 306.761 669.498 306.69 669.491 306.606C669.344 304.717 667.334 279.774 663 264.22C658.162 246.857 655.214 236.571 645 221.72C637.251 210.452 631.114 205.424 621 196.22C613.918 189.774 610.001 185.981 602 180.72C594.265 175.633 589.672 172.961 581 169.72C569.45 165.402 562.168 163.996 550 162C536.783 159.831 529.373 159.971 516 159.22C506.057 158.661 500.397 158.118 490.5 159.22C481.974 160.169 477.221 161.271 469 163.72C458.196 166.937 442.726 174.832 441.134 175.651C441.038 175.7 440.95 175.74 440.851 175.782C431.707 179.643 423.164 185.409 414.957 192.22Z" fill="#4C4C4C" stroke="black" stroke-width="3"/>
<circle cx="927.5" cy="358.72" r="91.5" stroke="black" stroke-width="50"/>
<path d="M519.382 26.2331L519.359 26.2387L519.336 26.2464L506.976 30.5251C506.509 30.6866 506.066 30.9104 505.659 31.1902L499.38 35.5072C498.543 36.0824 497.882 36.8779 497.47 37.8057L497.363 38.0465C496.641 39.6716 495.029 40.7189 493.251 40.7189H473C470.515 40.7189 468.5 38.7042 468.5 36.2189V9.93552C468.5 7.55646 470.389 5.58025 472.773 5.4429C580.819 -0.783123 643.25 -1.49094 750.261 5.41129C752.631 5.56412 754.5 7.53443 754.5 9.90087V36.2189C754.5 38.7042 752.485 40.7189 750 40.7189H731.976C730.572 40.7189 729.248 40.0632 728.397 38.9461L722.349 31.0082C722.02 30.5762 721.629 30.1954 721.188 29.878L710.097 21.8924C709.512 21.4717 708.851 21.1698 708.151 21.0039L690.527 16.8299C690.226 16.7585 689.919 16.7127 689.609 16.693L611.926 11.745C611.637 11.7266 611.348 11.731 611.06 11.7582L558.814 16.687C558.55 16.712 558.287 16.7561 558.029 16.819L519.382 26.2331Z" fill="#F7CCDD" stroke="black"/>
<path d="M497 138.895C497 136.223 499.221 134.085 501.892 134.188L536 135.5L575 134L620.872 137.416C621.615 137.471 622.335 137.692 622.982 138.061L646.029 151.231C646.342 151.41 646.635 151.622 646.903 151.864L666.17 169.296C667.03 170.074 667.592 171.127 667.762 172.275L674.414 217.418C674.471 217.805 674.573 218.183 674.718 218.546L688.316 252.54C689.738 256.096 686.799 259.865 683.004 259.352L676.154 258.426C674.23 258.166 672.63 256.816 672.051 254.963L660.802 218.968C660.603 218.329 660.277 217.737 659.844 217.227L635.864 188.93C635.622 188.644 635.349 188.387 635.05 188.162L611.814 170.735C611.605 170.579 611.384 170.439 611.153 170.316L586.479 157.254C586.161 157.085 585.825 156.951 585.478 156.855L541.601 144.667C541.202 144.556 540.791 144.495 540.376 144.486L501.604 143.605C499.044 143.546 497 141.455 497 138.895Z" fill="#5F5F5F"/>
<rect x="673.398" y="116.61" width="38.7949" height="7.94469" transform="rotate(41.2198 673.398 116.61)" fill="#6A6A6A"/>
<ellipse cx="666.934" cy="116.637" rx="28.0224" ry="7" transform="rotate(-40.1441 666.934 116.637)" fill="#808080"/>
<path d="M686.5 160.22C698.604 138.755 711.31 129.065 744 116.22L749 154.22L751 182.22V206.72L747.5 255.72L731.5 257.72V199.72L706.5 182.22L686.5 160.22Z" fill="#5F5F5F"/>
<path d="M554.403 28.1875L554.415 28.1855L554.427 28.1834C580.4 23.6788 595.31 22.5789 622.417 22.2215L697.582 28.1949C705.768 30.3398 711.203 32.5702 715.423 35.6447C719.608 38.6931 722.787 42.7087 726.219 48.7647C739.711 86.4056 747.584 116.624 750.948 148.392C754.272 179.783 753.205 212.795 748.708 256.103C719.388 261.494 702.348 261.798 672.996 256.066C667.215 235.385 662.596 223.129 649.125 201.403L649.006 201.211L648.854 201.043C637.007 187.944 626.967 178.859 615.685 171.246C604.421 163.647 592.005 157.573 575.493 150.426L575.311 150.347L575.119 150.298C545.592 142.746 527.757 140.979 495.5 144.889V93.3076L498.889 44.8882C519.254 35.7848 531.526 31.9282 554.403 28.1875Z" stroke="black" stroke-width="5"/>
<path d="M471.5 29L313.236 103.112C309.892 104.678 309.34 109.203 312.211 111.526L413.5 193.5" stroke="#CBCBCB" stroke-width="3"/>
<rect x="-897" width="1207" height="242" rx="15" fill="#D9D9D9"/>
<path d="M-34.976 60V21.12H-29.552V38.4H-27.536L-20.576 21.12H-15.152L-22.832 39.6L-14.192 60H-19.616L-27.488 41.04H-29.552V60H-34.976ZM-11.081 66.816V62.64C-10.633 62.672 -10.233 62.704 -9.881 62.736C-9.497 62.768 -9.145 62.784 -8.825 62.784C-8.153 62.784 -7.577 62.688 -7.097 62.496C-6.585 62.304 -6.153 62.016 -5.801 61.632C-5.449 61.248 -5.193 60.8 -5.033 60.288C-4.841 59.776 -4.745 59.216 -4.745 58.608C-4.745 58.192 -4.777 57.744 -4.841 57.264C-4.873 56.784 -4.937 56.256 -5.033 55.68L-12.713 21.12H-7.577L-4.313 37.68L-2.345 50.016L-0.616999 37.776L2.311 21.12H7.495L0.967001 53.808C0.455001 56.368 -0.0409994 58.496 -0.521 60.192C-1.001 61.92 -1.561 63.28 -2.201 64.272C-2.809 65.264 -3.593 65.968 -4.553 66.384C-5.481 66.832 -6.665 67.056 -8.105 67.056C-8.393 67.056 -8.809 67.024 -9.353 66.96C-9.865 66.928 -10.441 66.88 -11.081 66.816ZM11.1021 60V21.12H20.7501C23.0861 21.12 24.9421 21.552 26.3181 22.416C27.7261 23.248 28.7501 24.464 29.3901 26.064C30.0301 27.664 30.3501 29.6 30.3501 31.872C30.3501 33.92 29.9821 35.696 29.2461 37.2C28.5421 38.704 27.4861 39.872 26.0781 40.704C24.6701 41.504 22.9101 41.904 20.7981 41.904H16.5261V60H11.1021ZM16.5261 38.016H19.0221C20.5901 38.016 21.8221 37.84 22.7181 37.488C23.6141 37.136 24.2541 36.528 24.6381 35.664C25.0221 34.768 25.2141 33.52 25.2141 31.92C25.2141 30.064 25.0701 28.64 24.7821 27.648C24.5261 26.656 23.9661 25.968 23.1021 25.584C22.2381 25.2 20.8941 25.008 19.0701 25.008H16.5261V38.016ZM29.8964 60L38.1524 21.12H43.3844L51.6884 60H46.5524L44.7764 50.208H36.8564L34.9844 60H29.8964ZM37.5764 46.32H44.0564L40.7924 28.8L37.5764 46.32ZM57.9366 60V25.152H51.3606V21.12H69.7446V25.152H63.3606V60H57.9366ZM83.4288 60.432C80.8048 60.432 78.7088 59.92 77.1408 58.896C75.5728 57.872 74.4528 56.416 73.7808 54.528C73.1088 52.608 72.7728 50.368 72.7728 47.808V33.072C72.7728 30.512 73.1088 28.32 73.7808 26.496C74.4848 24.64 75.6048 23.232 77.1408 22.272C78.7088 21.28 80.8048 20.784 83.4288 20.784C86.0528 20.784 88.1328 21.28 89.6688 22.272C91.2048 23.264 92.3088 24.672 92.9808 26.496C93.6848 28.32 94.0368 30.512 94.0368 33.072V47.856C94.0368 50.384 93.6848 52.592 92.9808 54.48C92.3088 56.368 91.2048 57.84 89.6688 58.896C88.1328 59.92 86.0528 60.432 83.4288 60.432ZM83.4288 56.16C84.8688 56.16 85.9568 55.872 86.6928 55.296C87.4288 54.688 87.9248 53.856 88.1808 52.8C88.4368 51.712 88.5648 50.448 88.5648 49.008V31.968C88.5648 30.528 88.4368 29.296 88.1808 28.272C87.9248 27.216 87.4288 26.416 86.6928 25.872C85.9568 25.296 84.8688 25.008 83.4288 25.008C81.9888 25.008 80.8848 25.296 80.1168 25.872C79.3808 26.416 78.8848 27.216 78.6288 28.272C78.3728 29.296 78.2448 30.528 78.2448 31.968V49.008C78.2448 50.448 78.3728 51.712 78.6288 52.8C78.8848 53.856 79.3808 54.688 80.1168 55.296C80.8848 55.872 81.9888 56.16 83.4288 56.16ZM99.3678 60V21.12H109.016C111.352 21.12 113.208 21.552 114.584 22.416C115.992 23.248 117.016 24.464 117.656 26.064C118.296 27.664 118.616 29.6 118.616 31.872C118.616 33.92 118.248 35.696 117.512 37.2C116.808 38.704 115.752 39.872 114.344 40.704C112.936 41.504 111.176 41.904 109.064 41.904H104.792V60H99.3678ZM104.792 38.016H107.288C108.856 38.016 110.088 37.84 110.984 37.488C111.88 37.136 112.52 36.528 112.904 35.664C113.288 34.768 113.48 33.52 113.48 31.92C113.48 30.064 113.336 28.64 113.048 27.648C112.792 26.656 112.232 25.968 111.368 25.584C110.504 25.2 109.16 25.008 107.336 25.008H104.792V38.016ZM122.286 40.08V34.608H127.47V40.08H122.286ZM122.286 55.392V49.92H127.47V55.392H122.286Z" fill="black"/>
<path d="M-34.976 121V82.12H-29.552V99.4H-27.536L-20.576 82.12H-15.152L-22.832 100.6L-14.192 121H-19.616L-27.488 102.04H-29.552V121H-34.976ZM-12.713 121L-4.457 82.12H0.775001L9.079 121H3.943L2.167 111.208H-5.753L-7.625 121H-12.713ZM-5.033 107.32H1.447L-1.817 89.8L-5.033 107.32ZM12.928 121L13.648 82.12H18.976L25.84 113.656L32.752 82.12H38.032L38.752 121H34.384L33.952 92.776L27.376 121H24.304L17.776 92.776L17.344 121H12.928ZM44.7115 121V82.12H49.5115V109.048L60.8875 82.12H64.7755V121H60.0235V93.64L48.7435 121H44.7115ZM67.9398 121V116.968C68.6438 117 69.2838 116.952 69.8598 116.824C70.4678 116.696 70.9958 116.392 71.4438 115.912C71.9238 115.432 72.3398 114.68 72.6918 113.656C73.0438 112.632 73.3478 111.24 73.6038 109.48C73.8598 107.72 74.0838 105.496 74.2758 102.808L75.5718 82.12H92.6598V121H87.2358V86.152H80.2278L79.3158 102.808C79.1558 105.304 78.9478 107.56 78.6918 109.576C78.4358 111.56 78.0518 113.304 77.5398 114.808C77.0598 116.28 76.4038 117.512 75.5718 118.504C74.7718 119.464 73.7478 120.152 72.4998 120.568C71.2518 120.984 69.7318 121.128 67.9398 121ZM96.6464 121L104.902 82.12H110.134L118.438 121H113.302L111.526 111.208H103.606L101.734 121H96.6464ZM104.326 107.32H110.806L107.542 89.8L104.326 107.32ZM133.352 121V82.12H143C145.336 82.12 147.192 82.552 148.568 83.416C149.976 84.248 151 85.464 151.64 87.064C152.28 88.664 152.6 90.6 152.6 92.872C152.6 94.92 152.232 96.696 151.496 98.2C150.792 99.704 149.736 100.872 148.328 101.704C146.92 102.504 145.16 102.904 143.048 102.904H138.776V121H133.352ZM138.776 99.016H141.272C142.84 99.016 144.072 98.84 144.968 98.488C145.864 98.136 146.504 97.528 146.888 96.664C147.272 95.768 147.464 94.52 147.464 92.92C147.464 91.064 147.32 89.64 147.032 88.648C146.776 87.656 146.216 86.968 145.352 86.584C144.488 86.2 143.144 86.008 141.32 86.008H138.776V99.016ZM156.415 121V82.12H161.215V109.048L172.591 82.12H176.479V121H171.727V93.64L160.447 121H156.415ZM180.171 121L188.283 100.648L180.315 82.12H185.355L191.259 95.848L196.635 82.12H201.675L193.515 101.08L202.059 121H197.019L190.683 106.36L185.211 121H180.171ZM209.999 121V86.152H203.423V82.12H221.807V86.152H215.423V121H209.999ZM225.18 121V82.12H240.252V86.152H230.604V99.016H238.428V102.856H230.604V117.112H240.348V121H225.18ZM244.727 121V82.12H254.375C256.711 82.12 258.567 82.552 259.943 83.416C261.351 84.248 262.375 85.464 263.015 87.064C263.655 88.664 263.975 90.6 263.975 92.872C263.975 94.92 263.607 96.696 262.871 98.2C262.167 99.704 261.111 100.872 259.703 101.704C258.295 102.504 256.535 102.904 254.423 102.904H250.151V121H244.727ZM250.151 99.016H252.647C254.215 99.016 255.447 98.84 256.343 98.488C257.239 98.136 257.879 97.528 258.263 96.664C258.647 95.768 258.839 94.52 258.839 92.92C258.839 91.064 258.695 89.64 258.407 88.648C258.151 87.656 257.591 86.968 256.727 86.584C255.863 86.2 254.519 86.008 252.695 86.008H250.151V99.016Z" fill="black"/>
<path d="M-37.088 186L-28.832 147.12H-23.6L-15.296 186H-20.432L-22.208 176.208H-30.128L-32 186H-37.088ZM-29.408 172.32H-22.928L-26.192 154.8L-29.408 172.32ZM-11.351 186V147.12H-5.927V163.92H4.057V147.12H9.481V186H4.057V167.808H-5.927V186H-11.351ZM15.5553 186V147.12H20.9793V163.92H30.9633V147.12H36.3873V186H30.9633V167.808H20.9793V186H15.5553ZM40.3495 186L48.6055 147.12H53.8375L62.1415 186H57.0055L55.2295 176.208H47.3095L45.4375 186H40.3495ZM48.0295 172.32H54.5095L51.2455 154.8L48.0295 172.32ZM77.0553 186V147.12H82.4793V164.4H84.4953L91.4553 147.12H96.8793L89.1993 165.6L97.8393 186H92.4153L84.5433 167.04H82.4793V186H77.0553ZM111.366 186.432C108.742 186.432 106.646 185.92 105.078 184.896C103.51 183.872 102.39 182.416 101.718 180.528C101.046 178.608 100.71 176.368 100.71 173.808V159.072C100.71 156.512 101.046 154.32 101.718 152.496C102.422 150.64 103.542 149.232 105.078 148.272C106.646 147.28 108.742 146.784 111.366 146.784C113.99 146.784 116.07 147.28 117.606 148.272C119.142 149.264 120.246 150.672 120.918 152.496C121.622 154.32 121.974 156.512 121.974 159.072V173.856C121.974 176.384 121.622 178.592 120.918 180.48C120.246 182.368 119.142 183.84 117.606 184.896C116.07 185.92 113.99 186.432 111.366 186.432ZM111.366 182.16C112.806 182.16 113.894 181.872 114.63 181.296C115.366 180.688 115.862 179.856 116.118 178.8C116.374 177.712 116.502 176.448 116.502 175.008V157.968C116.502 156.528 116.374 155.296 116.118 154.272C115.862 153.216 115.366 152.416 114.63 151.872C113.894 151.296 112.806 151.008 111.366 151.008C109.926 151.008 108.822 151.296 108.054 151.872C107.318 152.416 106.822 153.216 106.566 154.272C106.31 155.296 106.182 156.528 106.182 157.968V175.008C106.182 176.448 106.31 177.712 106.566 178.8C106.822 179.856 107.318 180.688 108.054 181.296C108.822 181.872 109.926 182.16 111.366 182.16ZM127.209 186L127.929 147.12H133.257L140.121 178.656L147.033 147.12H152.313L153.033 186H148.665L148.233 157.776L141.657 186H138.585L132.057 157.776L131.625 186H127.209ZM158.993 186V147.12H164.417V164.4H166.433L173.393 147.12H178.817L171.137 165.6L179.777 186H174.353L166.481 167.04H164.417V186H158.993ZM193.304 186.432C190.68 186.432 188.584 185.92 187.016 184.896C185.448 183.872 184.328 182.416 183.656 180.528C182.984 178.608 182.648 176.368 182.648 173.808V159.072C182.648 156.512 182.984 154.32 183.656 152.496C184.36 150.64 185.48 149.232 187.016 148.272C188.584 147.28 190.68 146.784 193.304 146.784C195.928 146.784 198.008 147.28 199.544 148.272C201.08 149.264 202.184 150.672 202.856 152.496C203.56 154.32 203.912 156.512 203.912 159.072V173.856C203.912 176.384 203.56 178.592 202.856 180.48C202.184 182.368 201.08 183.84 199.544 184.896C198.008 185.92 195.928 186.432 193.304 186.432ZM193.304 182.16C194.744 182.16 195.832 181.872 196.568 181.296C197.304 180.688 197.8 179.856 198.056 178.8C198.312 177.712 198.44 176.448 198.44 175.008V157.968C198.44 156.528 198.312 155.296 198.056 154.272C197.8 153.216 197.304 152.416 196.568 151.872C195.832 151.296 194.744 151.008 193.304 151.008C191.864 151.008 190.76 151.296 189.992 151.872C189.256 152.416 188.76 153.216 188.504 154.272C188.248 155.296 188.12 156.528 188.12 157.968V175.008C188.12 176.448 188.248 177.712 188.504 178.8C188.76 179.856 189.256 180.688 189.992 181.296C190.76 181.872 191.864 182.16 193.304 182.16ZM209.243 186V147.12H218.171C219.931 147.12 221.451 147.312 222.731 147.696C224.043 148.08 225.131 148.672 225.995 149.472C226.859 150.272 227.499 151.296 227.915 152.544C228.331 153.76 228.539 155.2 228.539 156.864C228.539 158.464 228.331 159.856 227.915 161.04C227.531 162.192 226.923 163.104 226.091 163.776C225.291 164.448 224.251 164.88 222.971 165.072C224.539 165.424 225.803 166.032 226.763 166.896C227.723 167.728 228.427 168.816 228.875 170.16C229.355 171.472 229.595 173.056 229.595 174.912C229.595 176.576 229.403 178.096 229.019 179.472C228.635 180.848 228.027 182.016 227.195 182.976C226.395 183.936 225.355 184.688 224.075 185.232C222.827 185.744 221.339 186 219.611 186H209.243ZM214.667 182.112H218.315C220.747 182.112 222.363 181.552 223.163 180.432C223.995 179.28 224.411 177.44 224.411 174.912C224.411 173.28 224.187 171.92 223.739 170.832C223.323 169.712 222.635 168.88 221.675 168.336C220.747 167.76 219.483 167.472 217.883 167.472H214.667V182.112ZM214.667 163.344H217.883C219.419 163.344 220.619 163.136 221.483 162.72C222.347 162.272 222.955 161.568 223.307 160.608C223.659 159.648 223.835 158.4 223.835 156.864C223.835 155.072 223.563 153.776 223.019 152.976C222.475 152.176 221.627 151.68 220.475 151.488C219.323 151.264 217.819 151.152 215.963 151.152H214.667V163.344ZM232.256 186L240.512 147.12H245.744L254.048 186H248.912L247.136 176.208H239.216L237.344 186H232.256ZM239.936 172.32H246.416L243.152 154.8L239.936 172.32Z" fill="black"/>
<defs>
<linearGradient id="paint0_linear_311_3618" x1="720" y1="367.22" x2="720" y2="141.72" gradientUnits="userSpaceOnUse">
<stop stop-color="#EC1168"/>
<stop offset="1" stop-color="#F7CCDD"/>
</linearGradient>
</defs>
</svg>
