<svg width="801" height="381" viewBox="0 0 801 381" fill="none" xmlns="http://www.w3.org/2000/svg">
<path d="M22.6462 278.519L10.4338 258.536C8.2423 254.949 7.62685 250.618 8.73268 246.563L12.8683 231.399C13.524 228.995 14.7585 226.788 16.4639 224.971L91.0887 145.464C93.907 142.462 97.8416 140.758 101.96 140.758C110.194 140.758 116.869 134.083 116.869 125.849V103.589C116.869 99.5423 118.477 95.6609 121.339 92.7992L126.369 87.7691C128.146 85.9912 130.336 84.6802 132.743 83.9526L188.165 67.1971C192.319 65.9412 195.742 62.976 197.577 59.0435L204.345 44.541C205.027 43.079 205.937 41.7344 207.04 40.5574L213.258 33.9254C215.567 31.4625 218.627 29.8348 221.96 29.2972L262.917 22.6913C263.72 22.5617 264.533 22.4966 265.347 22.4966H278.303C280.523 22.4966 282.716 22.0124 284.729 21.0776L303.036 12.5779L311.704 9.32751C314.029 8.45568 316.531 8.16434 318.994 8.47876L351.104 12.5779H358.657C362.161 12.5779 365.559 13.7843 368.279 15.9943L374.948 21.4122C375.835 22.1329 376.638 22.9509 377.342 23.8508L429.955 91.0791C430.793 92.1488 431.483 93.3253 432.009 94.5777L455.5 150.542C456.584 153.126 458.359 155.36 460.629 157.002L506.752 190.352L518.13 199.834C519.685 201.13 520.966 202.721 521.9 204.517L528.394 217.005C529.708 219.532 530.288 222.376 530.07 225.216L527.684 256.228C527.48 258.88 528.776 261.422 531.04 262.816C534.45 264.914 538.92 263.778 540.913 260.305L559.745 227.502C560.526 226.141 561.512 224.91 562.668 223.85L570.079 217.056L573.718 212.689C576.247 209.655 579.992 207.901 583.942 207.901C585.372 207.901 586.793 208.131 588.15 208.584L596.048 211.216C597.044 211.548 598.004 211.982 598.911 212.512L602.171 214.413C605.107 216.126 607.388 218.771 608.65 221.927L617.384 243.761L628.09 276.593C628.577 278.087 629.367 279.464 630.411 280.638C633.196 283.772 637.476 285.126 641.557 284.166L641.998 284.062C645.717 283.187 648.809 280.618 650.35 277.122L677.914 214.598C678.753 212.697 679.971 210.986 681.494 209.572L687.971 203.558C689.226 202.392 690.668 201.446 692.238 200.76L696.447 198.918C700.058 197.338 704.14 197.217 707.838 198.58L716.571 201.797L727.226 204.304C728.761 204.665 730.23 205.262 731.582 206.073L740.986 211.716L748.512 217.736C751.058 219.773 752.884 222.571 753.724 225.72L754.968 230.384C755.31 231.666 755.483 232.988 755.483 234.316V241.882C755.483 243.13 755.33 244.373 755.027 245.583L754.323 248.399C753.135 253.153 749.736 257.046 745.187 258.866L740.986 260.546L733.348 264.62C730.866 265.944 728.83 267.971 727.497 270.448L726.897 271.562C725.195 274.722 725.042 278.49 726.48 281.779C728.34 286.03 732.54 288.777 737.18 288.777H737.935H748.016C750.9 288.777 753.726 287.959 756.164 286.419L764.479 281.167C766.097 280.145 767.893 279.437 769.773 279.079L775.855 277.92C780.318 277.07 784.92 278.387 788.258 281.468C791.197 284.181 792.869 288 792.869 292V303.991C792.869 306.524 792.238 309.018 791.033 311.247L780.381 330.954C778.596 334.256 775.657 336.784 772.126 338.055L758.535 342.948L729.542 352.104L684.97 368.179C683.663 368.65 682.297 368.941 680.912 369.043L631.117 372.704H577.83C575.248 372.704 572.709 372.049 570.449 370.801L544.901 356.682L506.752 333.029L485.388 317.007L469.832 304.279C469.015 303.61 468.269 302.859 467.607 302.036L443.424 271.991L412.94 238.912C409.57 235.256 404.63 233.47 399.702 234.127L384.675 236.131H377.329C374.644 236.131 372.007 235.423 369.683 234.077L366.348 232.146C361.635 229.418 358.734 224.385 358.734 218.94V216.293V201.755C358.734 198.828 356.361 196.456 353.435 196.456C351.949 196.456 350.532 195.833 349.529 194.738L345.145 189.956C343.544 188.209 342.372 186.114 341.721 183.837L338.133 171.278L335.18 159.463C334.613 157.197 333.534 155.091 332.025 153.307L327.175 147.576C326.345 146.596 325.395 145.724 324.347 144.981L309.331 134.345C308.192 133.538 307.169 132.579 306.29 131.494L295.392 118.031C294.894 117.415 294.444 116.762 294.047 116.076L286.251 102.609L279.623 93.5722C278.457 91.9823 276.994 90.6335 275.315 89.6002L271.617 87.3246C269.212 85.8446 266.444 85.061 263.62 85.061H259.337C258.461 85.061 257.586 85.1365 256.723 85.2866L240.472 88.1129L226.718 90.4052C223.746 90.9005 220.987 92.2643 218.79 94.3248L214.776 98.088C211.698 100.973 209.953 105.003 209.953 109.22V114.371C209.953 116.18 209.631 117.975 209.003 119.671L203.914 133.41C202.876 136.213 201.038 138.649 198.628 140.416L190.878 146.099L178.367 155.135C177.554 155.722 176.801 156.388 176.119 157.123L168.147 165.707C167.534 166.368 166.981 167.081 166.493 167.839L162.887 173.449C161.239 176.012 158.862 178.023 156.062 179.223L147.215 183.014C145.316 183.829 143.271 184.248 141.204 184.248H129.077H124.499C119.696 184.248 115.173 186.51 112.291 190.352L108.825 194.974C108.086 195.958 107.232 196.85 106.28 197.629L101.171 201.809C99.9447 202.812 98.8824 204 98.022 205.33L92.3005 214.172C91.3915 215.577 90.2577 216.822 88.9445 217.859L79.5654 225.264C77.5105 226.886 75.9076 229.01 74.9107 231.431L72.2397 237.917C71.4808 239.76 71.0903 241.734 71.0903 243.728V259.21C71.0903 261.101 71.4421 262.977 72.1279 264.74L74.9605 272.024C75.9242 274.502 76.2237 277.189 75.8292 279.819L75.6182 281.225C74.7212 287.206 70.3769 292.092 64.5425 293.684L59.3282 295.106C58.0197 295.463 56.6694 295.643 55.3131 295.643H46.4706C42.6745 295.643 39.0147 294.228 36.2059 291.675L25.4023 281.853C24.3299 280.879 23.4019 279.756 22.6462 278.519Z" stroke="#262626" stroke-width="15.2596"/>
</svg>
