<svg width="1941" height="488" viewBox="0 0 1941 488" fill="none" xmlns="http://www.w3.org/2000/svg">
<path fill-rule="evenodd" clip-rule="evenodd" d="M1396.17 292.639C1396.63 294.49 1398.48 295.619 1400.37 295.359C1402.19 295.109 1404.04 294.98 1405.92 294.98C1406.69 294.98 1407.46 295.002 1408.23 295.045C1409.96 295.143 1411.6 294.084 1412.07 292.408L1430.53 226.674C1431.08 224.708 1433.19 223.63 1435.11 224.335L1455.91 231.987C1457.9 232.718 1458.79 235.035 1457.8 236.909L1426.28 296.515C1425.37 298.222 1426.03 300.325 1427.65 301.379C1430.06 302.948 1432.27 304.769 1434.24 306.804C1435.5 308.093 1437.49 308.407 1438.99 307.412L1495.81 269.663C1497.5 268.543 1499.78 269.082 1500.79 270.838L1511.44 289.419C1512.5 291.26 1511.68 293.609 1509.72 294.405L1445.98 320.216C1444.29 320.9 1443.43 322.762 1443.82 324.543C1444.34 326.979 1444.62 329.503 1444.62 332.088C1444.62 332.305 1444.61 332.521 1444.61 332.737C1444.57 334.706 1445.98 336.469 1447.94 336.65L1516.46 342.98C1518.54 343.172 1519.99 345.139 1519.56 347.187L1515.2 367.925C1514.78 369.929 1512.73 371.145 1510.77 370.558L1442.84 350.244C1441.26 349.773 1439.58 350.475 1438.68 351.85C1437.26 354.013 1435.61 356.025 1433.76 357.856C1432.28 359.33 1432.15 361.76 1433.64 363.226L1482.87 411.625C1484.39 413.121 1484.23 415.619 1482.53 416.91L1465.11 430.134C1463.5 431.356 1461.2 430.965 1460.08 429.281L1420.3 369.33C1419.42 368.007 1417.77 367.456 1416.23 367.862C1412.95 368.731 1409.49 369.195 1405.92 369.195L1405.78 369.194C1405.7 369.194 1405.64 369.261 1405.64 369.34L1411.14 443.46C1411.29 445.533 1409.62 447.282 1407.54 447.218L1385.24 446.532C1383.15 446.468 1381.59 444.606 1381.88 442.541L1392.2 369.781C1392.43 368.128 1391.46 366.555 1389.93 365.889C1388.21 365.139 1386.56 364.271 1384.98 363.296C1383.34 362.285 1381.17 362.574 1380.01 364.104L1334.8 423.463C1333.57 425.069 1331.25 425.31 1329.72 423.989L1313.24 409.733C1311.63 408.336 1311.63 405.833 1313.24 404.437L1371.13 354.378C1372.48 353.216 1372.72 351.239 1371.85 349.69C1371.28 348.673 1370.75 347.627 1370.28 346.555C1369.53 344.866 1367.7 343.865 1365.92 344.342L1291.11 364.324C1289.12 364.853 1287.11 363.573 1286.75 361.554L1283.05 340.699C1282.69 338.642 1284.2 336.725 1286.28 336.594L1364 331.711C1365.82 331.597 1367.23 330.096 1367.43 328.28C1367.6 326.679 1367.87 325.108 1368.25 323.574C1368.68 321.807 1367.87 319.924 1366.21 319.191L1296.75 288.625C1294.8 287.769 1294.06 285.394 1295.18 283.585L1306.42 265.32C1307.48 263.597 1309.78 263.129 1311.43 264.299L1372.52 307.597C1374.03 308.668 1376.11 308.363 1377.39 307.023C1378.8 305.541 1380.34 304.17 1381.99 302.925C1383.41 301.85 1383.97 299.929 1383.19 298.328L1351.86 234.299C1350.93 232.398 1351.88 230.112 1353.89 229.441L1374.93 222.402C1376.87 221.753 1378.95 222.897 1379.44 224.883L1396.17 292.639Z" fill="#F7CCDD"/>
<path fill-rule="evenodd" clip-rule="evenodd" d="M1820.56 331.238C1820.87 332.474 1822.11 333.227 1823.37 333.054C1824.58 332.887 1825.81 332.801 1827.07 332.801C1827.59 332.801 1828.1 332.816 1828.61 332.844C1829.77 332.91 1830.86 332.203 1831.18 331.083L1843.5 287.194C1843.87 285.881 1845.28 285.162 1846.56 285.632L1860.45 290.741C1861.78 291.23 1862.37 292.777 1861.71 294.028L1840.66 333.826C1840.06 334.966 1840.5 336.369 1841.58 337.073C1843.19 338.121 1844.66 339.337 1845.98 340.695C1846.82 341.556 1848.15 341.766 1849.15 341.102L1887.09 315.897C1888.22 315.15 1889.74 315.509 1890.41 316.682L1897.53 329.088C1898.23 330.317 1897.69 331.885 1896.38 332.417L1853.82 349.651C1852.69 350.107 1852.12 351.351 1852.37 352.54C1852.72 354.166 1852.91 355.851 1852.91 357.577C1852.91 357.722 1852.91 357.866 1852.9 358.011C1852.88 359.325 1853.82 360.502 1855.13 360.623L1900.88 364.849C1902.27 364.978 1903.24 366.291 1902.95 367.658L1900.03 381.505C1899.75 382.843 1898.39 383.655 1897.08 383.263L1851.72 369.7C1850.67 369.385 1849.55 369.853 1848.94 370.772C1847.99 372.216 1846.89 373.559 1845.66 374.782C1844.67 375.766 1844.59 377.388 1845.58 378.367L1878.45 410.683C1879.46 411.681 1879.36 413.349 1878.22 414.211L1866.59 423.04C1865.52 423.856 1863.98 423.595 1863.23 422.471L1836.67 382.443C1836.09 381.559 1834.98 381.192 1833.96 381.463C1831.77 382.043 1829.46 382.353 1827.07 382.353C1826.97 382.353 1826.88 382.441 1826.89 382.546L1830.56 431.939C1830.66 433.322 1829.54 434.49 1828.15 434.448L1813.26 433.99C1811.87 433.947 1810.82 432.704 1811.02 431.325L1817.91 382.744C1818.07 381.641 1817.42 380.59 1816.4 380.145C1815.25 379.644 1814.14 379.065 1813.09 378.415C1812 377.739 1810.55 377.932 1809.77 378.953L1779.58 418.587C1778.77 419.659 1777.22 419.82 1776.2 418.938L1765.19 409.419C1764.11 408.487 1764.11 406.816 1765.19 405.883L1803.84 372.46C1804.74 371.684 1804.9 370.364 1804.32 369.33C1803.94 368.651 1803.59 367.952 1803.27 367.237C1802.78 366.109 1801.55 365.441 1800.36 365.759L1750.41 379.101C1749.09 379.454 1747.75 378.599 1747.51 377.251L1745.04 363.327C1744.79 361.953 1745.8 360.673 1747.19 360.586L1799.08 357.326C1800.3 357.249 1801.24 356.247 1801.37 355.035C1801.48 353.966 1801.67 352.917 1801.92 351.892C1802.21 350.712 1801.67 349.455 1800.56 348.966L1754.18 328.557C1752.88 327.986 1752.39 326.4 1753.13 325.193L1760.64 312.997C1761.35 311.847 1762.88 311.535 1763.98 312.315L1804.77 341.225C1805.78 341.94 1807.17 341.736 1808.02 340.841C1808.97 339.852 1809.99 338.937 1811.1 338.105C1812.04 337.388 1812.42 336.105 1811.89 335.036L1790.97 292.285C1790.35 291.015 1790.99 289.489 1792.33 289.041L1806.38 284.341C1807.68 283.908 1809.07 284.672 1809.39 285.998L1820.56 331.238Z" fill="#F7CCDD"/>
<circle cx="1401.5" cy="334.72" r="127.5" stroke="black" stroke-width="50"/>
<path fill-rule="evenodd" clip-rule="evenodd" d="M1428.5 141.72L1367.5 146.22L1335 177.72L1371.5 162.72L1406.5 159.72L1474 170.22L1528.5 208.22L1550.7 251.859L1547 251.22L1570 367.22H1689.5L1700 333.22L1711 296.22L1721.5 282.22L1733 267.72L1744.92 255.393C1796.4 258.213 1839.61 264.02 1899 274.22C1893.52 242.199 1893.13 224.241 1899 192.22C1806.54 161.885 1753.04 152.144 1655 146.22V250.027L1642.5 257.72L1602 260.72L1571.79 255.501L1562 230.22L1545 199.22L1520.5 176.22L1495 159.72L1463 146.22L1428.5 141.72Z" fill="url(#paint0_linear_311_3618)"/>
<path d="M1311.96 192.22C1309.73 194.071 1312.61 197.36 1315 195.72C1321.52 191.244 1325.05 188.497 1332 184.72C1339.68 180.543 1344.28 178.702 1352.5 175.72C1357.32 173.971 1360.01 172.883 1365 171.72C1370.38 170.466 1373.5 170.26 1379 169.72C1391.24 168.516 1398.23 168.799 1410.5 169.72C1424.9 170.801 1433.06 171.938 1447 175.72C1457.19 178.484 1463.12 179.864 1472.5 184.72C1482.8 190.053 1487.53 194.859 1496.5 202.22C1507.07 210.897 1513.39 215.594 1522 226.22C1530.5 236.706 1534.08 243.59 1540 255.72C1544.61 265.171 1546.73 270.726 1550 280.72C1554.61 294.81 1555.79 303.144 1558.5 317.72C1560.56 328.781 1562.84 345.984 1562.99 347.156C1563 347.201 1563 347.242 1563.01 347.287L1565.83 365.005C1566.22 367.433 1568.31 369.22 1570.77 369.22H1686.74C1688.97 369.22 1690.93 367.748 1691.54 365.61L1696 350.22L1703.47 326.324C1703.49 326.254 1703.51 326.195 1703.53 326.127C1704 324.845 1709.2 310.595 1713.5 301.72C1718.31 291.803 1720.82 285.986 1727.5 277.22C1732.69 270.406 1735.96 266.753 1742.5 261.22C1749.94 254.92 1746.05 259.273 1763.5 247.72C1774.44 240.476 1799.95 236.48 1822.53 232.99C1828.22 232.109 1827.68 226.72 1821.92 226.72H1785.77C1785.59 226.72 1785.41 226.729 1785.23 226.749C1783.57 226.934 1774.45 227.973 1768.5 229.22C1759.73 231.056 1754.55 231.779 1746.5 235.72C1737 240.375 1732.75 245.014 1725 252.22C1720.25 256.639 1717.49 259.103 1713.5 264.22C1708.86 270.159 1707.05 274.074 1703.5 280.72C1698.59 289.919 1692.93 304.759 1692.1 306.947C1692.03 307.135 1691.98 307.309 1691.93 307.505C1691.44 309.584 1688.37 322.543 1687 331.22C1685.59 340.151 1684.69 352.714 1684.27 359.472C1684.1 362.134 1681.9 364.22 1679.24 364.22H1577.13C1574.52 364.22 1572.35 362.208 1572.14 359.603L1570.5 338.22L1566.52 306.845C1566.51 306.761 1566.5 306.69 1566.49 306.606C1566.34 304.717 1564.33 279.774 1560 264.22C1555.16 246.857 1552.21 236.571 1542 221.72C1534.25 210.452 1528.11 205.424 1518 196.22C1510.92 189.774 1507 185.981 1499 180.72C1491.26 175.633 1486.67 172.961 1478 169.72C1466.45 165.402 1459.17 163.996 1447 162C1433.78 159.831 1426.37 159.971 1413 159.22C1403.06 158.661 1397.4 158.118 1387.5 159.22C1378.97 160.169 1374.22 161.271 1366 163.72C1355.2 166.937 1339.73 174.832 1338.13 175.651C1338.04 175.7 1337.95 175.74 1337.85 175.782C1328.71 179.643 1320.16 185.409 1311.96 192.22Z" fill="#4C4C4C" stroke="black" stroke-width="3"/>
<circle cx="1824.5" cy="358.72" r="91.5" stroke="black" stroke-width="50"/>
<path d="M1416.38 26.2331L1416.36 26.2387L1416.34 26.2464L1403.98 30.5251C1403.51 30.6866 1403.07 30.9104 1402.66 31.1902L1396.38 35.5072C1395.54 36.0824 1394.88 36.8779 1394.47 37.8057L1394.36 38.0465C1393.64 39.6716 1392.03 40.7189 1390.25 40.7189H1370C1367.51 40.7189 1365.5 38.7042 1365.5 36.2189V9.93552C1365.5 7.55646 1367.39 5.58025 1369.77 5.4429C1477.82 -0.783123 1540.25 -1.49094 1647.26 5.41129C1649.63 5.56412 1651.5 7.53443 1651.5 9.90087V36.2189C1651.5 38.7042 1649.49 40.7189 1647 40.7189H1628.98C1627.57 40.7189 1626.25 40.0632 1625.4 38.9461L1619.35 31.0082C1619.02 30.5762 1618.63 30.1954 1618.19 29.878L1607.1 21.8924C1606.51 21.4717 1605.85 21.1698 1605.15 21.0039L1587.53 16.8299C1587.23 16.7585 1586.92 16.7127 1586.61 16.693L1508.93 11.745C1508.64 11.7266 1508.35 11.731 1508.06 11.7582L1455.81 16.687C1455.55 16.712 1455.29 16.7561 1455.03 16.819L1416.38 26.2331Z" fill="#F7CCDD" stroke="black"/>
<path d="M1394 138.895C1394 136.223 1396.22 134.085 1398.89 134.188L1433 135.5L1472 134L1517.87 137.416C1518.61 137.471 1519.34 137.692 1519.98 138.061L1543.03 151.231C1543.34 151.41 1543.63 151.622 1543.9 151.864L1563.17 169.296C1564.03 170.074 1564.59 171.127 1564.76 172.275L1571.41 217.418C1571.47 217.805 1571.57 218.183 1571.72 218.546L1585.32 252.54C1586.74 256.096 1583.8 259.865 1580 259.352L1573.15 258.426C1571.23 258.166 1569.63 256.816 1569.05 254.963L1557.8 218.968C1557.6 218.329 1557.28 217.737 1556.84 217.227L1532.86 188.93C1532.62 188.644 1532.35 188.387 1532.05 188.162L1508.81 170.735C1508.6 170.579 1508.38 170.439 1508.15 170.316L1483.48 157.254C1483.16 157.085 1482.82 156.951 1482.48 156.855L1438.6 144.667C1438.2 144.556 1437.79 144.495 1437.38 144.486L1398.6 143.605C1396.04 143.546 1394 141.455 1394 138.895Z" fill="#5F5F5F"/>
<rect x="1570.4" y="116.61" width="38.7949" height="7.94469" transform="rotate(41.2198 1570.4 116.61)" fill="#6A6A6A"/>
<ellipse cx="1563.93" cy="116.637" rx="28.0224" ry="7" transform="rotate(-40.1441 1563.93 116.637)" fill="#808080"/>
<path d="M1583.5 160.22C1595.6 138.755 1608.31 129.065 1641 116.22L1646 154.22L1648 182.22V206.72L1644.5 255.72L1628.5 257.72V199.72L1603.5 182.22L1583.5 160.22Z" fill="#5F5F5F"/>
<path d="M1451.4 28.1875L1451.42 28.1855L1451.43 28.1834C1477.4 23.6788 1492.31 22.5789 1519.42 22.2215L1594.58 28.1949C1602.77 30.3398 1608.2 32.5702 1612.42 35.6447C1616.61 38.6931 1619.79 42.7087 1623.22 48.7647C1636.71 86.4056 1644.58 116.624 1647.95 148.392C1651.27 179.783 1650.21 212.795 1645.71 256.103C1616.39 261.494 1599.35 261.798 1570 256.066C1564.21 235.385 1559.6 223.129 1546.12 201.403L1546.01 201.211L1545.85 201.043C1534.01 187.944 1523.97 178.859 1512.68 171.246C1501.42 163.647 1489 157.573 1472.49 150.426L1472.31 150.347L1472.12 150.298C1442.59 142.746 1424.76 140.979 1392.5 144.889V93.3076L1395.89 44.8882C1416.25 35.7848 1428.53 31.9282 1451.4 28.1875Z" stroke="black" stroke-width="5"/>
<path d="M1368.5 29L1210.24 103.112C1206.89 104.678 1206.34 109.203 1209.21 111.526L1310.5 193.5" stroke="#CBCBCB" stroke-width="3"/>
<rect width="1207" height="242" rx="15" fill="#D9D9D9"/>
<path d="M492.024 60V21.12H513.432V60H508.008V25.008H497.448V60H492.024ZM529.429 60.432C526.805 60.432 524.709 59.92 523.141 58.896C521.573 57.872 520.453 56.416 519.781 54.528C519.109 52.608 518.773 50.368 518.773 47.808V33.072C518.773 30.512 519.109 28.32 519.781 26.496C520.485 24.64 521.605 23.232 523.141 22.272C524.709 21.28 526.805 20.784 529.429 20.784C532.053 20.784 534.133 21.28 535.669 22.272C537.205 23.264 538.309 24.672 538.981 26.496C539.685 28.32 540.037 30.512 540.037 33.072V47.856C540.037 50.384 539.685 52.592 538.981 54.48C538.309 56.368 537.205 57.84 535.669 58.896C534.133 59.92 532.053 60.432 529.429 60.432ZM529.429 56.16C530.869 56.16 531.957 55.872 532.693 55.296C533.429 54.688 533.925 53.856 534.181 52.8C534.437 51.712 534.565 50.448 534.565 49.008V31.968C534.565 30.528 534.437 29.296 534.181 28.272C533.925 27.216 533.429 26.416 532.693 25.872C531.957 25.296 530.869 25.008 529.429 25.008C527.989 25.008 526.885 25.296 526.117 25.872C525.381 26.416 524.885 27.216 524.629 28.272C524.373 29.296 524.245 30.528 524.245 31.968V49.008C524.245 50.448 524.373 51.712 524.629 52.8C524.885 53.856 525.381 54.688 526.117 55.296C526.885 55.872 527.989 56.16 529.429 56.16ZM545.368 60V21.12H566.776V60H561.352V25.008H550.792V60H545.368ZM582.773 60.432C580.149 60.432 578.053 59.92 576.485 58.896C574.917 57.872 573.797 56.416 573.125 54.528C572.453 52.608 572.117 50.368 572.117 47.808V33.072C572.117 30.512 572.453 28.32 573.125 26.496C573.829 24.64 574.949 23.232 576.485 22.272C578.053 21.28 580.149 20.784 582.773 20.784C585.397 20.784 587.477 21.28 589.013 22.272C590.549 23.264 591.653 24.672 592.325 26.496C593.029 28.32 593.381 30.512 593.381 33.072V47.856C593.381 50.384 593.029 52.592 592.325 54.48C591.653 56.368 590.549 57.84 589.013 58.896C587.477 59.92 585.397 60.432 582.773 60.432ZM582.773 56.16C584.213 56.16 585.301 55.872 586.037 55.296C586.773 54.688 587.269 53.856 587.525 52.8C587.781 51.712 587.909 50.448 587.909 49.008V31.968C587.909 30.528 587.781 29.296 587.525 28.272C587.269 27.216 586.773 26.416 586.037 25.872C585.301 25.296 584.213 25.008 582.773 25.008C581.333 25.008 580.229 25.296 579.461 25.872C578.725 26.416 578.229 27.216 577.973 28.272C577.717 29.296 577.589 30.528 577.589 31.968V49.008C577.589 50.448 577.717 51.712 577.973 52.8C578.229 53.856 578.725 54.688 579.461 55.296C580.229 55.872 581.333 56.16 582.773 56.16ZM598.712 60V21.12H607.64C609.4 21.12 610.92 21.312 612.2 21.696C613.512 22.08 614.6 22.672 615.464 23.472C616.328 24.272 616.968 25.296 617.384 26.544C617.8 27.76 618.008 29.2 618.008 30.864C618.008 32.464 617.8 33.856 617.384 35.04C617 36.192 616.392 37.104 615.56 37.776C614.76 38.448 613.72 38.88 612.44 39.072C614.008 39.424 615.272 40.032 616.232 40.896C617.192 41.728 617.896 42.816 618.344 44.16C618.824 45.472 619.064 47.056 619.064 48.912C619.064 50.576 618.872 52.096 618.488 53.472C618.104 54.848 617.496 56.016 616.664 56.976C615.864 57.936 614.824 58.688 613.544 59.232C612.296 59.744 610.808 60 609.08 60H598.712ZM604.136 56.112H607.784C610.216 56.112 611.832 55.552 612.632 54.432C613.464 53.28 613.88 51.44 613.88 48.912C613.88 47.28 613.656 45.92 613.208 44.832C612.792 43.712 612.104 42.88 611.144 42.336C610.216 41.76 608.952 41.472 607.352 41.472H604.136V56.112ZM604.136 37.344H607.352C608.888 37.344 610.088 37.136 610.952 36.72C611.816 36.272 612.424 35.568 612.776 34.608C613.128 33.648 613.304 32.4 613.304 30.864C613.304 29.072 613.032 27.776 612.488 26.976C611.944 26.176 611.096 25.68 609.944 25.488C608.792 25.264 607.288 25.152 605.432 25.152H604.136V37.344ZM632.74 60L640.996 21.12H646.228L654.532 60H649.396L647.62 50.208H639.7L637.828 60H632.74ZM640.42 46.32H646.9L643.636 28.8L640.42 46.32ZM658.477 60V21.12H663.901V37.92H673.885V21.12H679.309V60H673.885V41.808H663.901V60H658.477ZM682.887 67.056V56.112H684.663C685.207 55.664 685.735 55.12 686.247 54.48C686.791 53.84 687.287 53.008 687.735 51.984C688.215 50.928 688.647 49.584 689.031 47.952C689.415 46.288 689.751 44.208 690.039 41.712C690.359 39.216 690.599 36.192 690.759 32.64L691.383 21.12H707.655V56.112H711.399V67.056H707.223L706.791 60H687.495L687.063 67.056H682.887ZM689.703 56.112H702.279V25.152H695.991L695.607 33.936C695.479 37.392 695.271 40.304 694.983 42.672C694.727 45.008 694.407 46.944 694.023 48.48C693.671 49.984 693.255 51.216 692.775 52.176C692.327 53.104 691.831 53.856 691.287 54.432C690.775 55.008 690.247 55.568 689.703 56.112ZM715.477 60V21.12H725.125C727.461 21.12 729.317 21.552 730.693 22.416C732.101 23.248 733.125 24.464 733.765 26.064C734.405 27.664 734.725 29.6 734.725 31.872C734.725 33.92 734.357 35.696 733.621 37.2C732.917 38.704 731.861 39.872 730.453 40.704C729.045 41.504 727.285 41.904 725.173 41.904H720.901V60H715.477ZM720.901 38.016H723.397C724.965 38.016 726.197 37.84 727.093 37.488C727.989 37.136 728.629 36.528 729.013 35.664C729.397 34.768 729.589 33.52 729.589 31.92C729.589 30.064 729.445 28.64 729.157 27.648C728.901 26.656 728.341 25.968 727.477 25.584C726.613 25.2 725.269 25.008 723.445 25.008H720.901V38.016ZM738.54 60V21.12H753.612V25.152H743.964V38.016H751.788V41.856H743.964V56.112H753.708V60H738.54ZM758.087 60V21.12H762.887V48.048L774.263 21.12H778.151V60H773.399V32.64L762.118 60H758.087ZM768.599 18.096C766.295 18.096 764.663 17.472 763.703 16.224C762.775 14.976 762.311 13.424 762.311 11.568H765.287C765.319 12.72 765.575 13.616 766.055 14.256C766.567 14.864 767.415 15.168 768.599 15.168C769.815 15.168 770.663 14.848 771.143 14.208C771.655 13.568 771.911 12.688 771.911 11.568H774.935C774.935 13.424 774.455 14.976 773.495 16.224C772.567 17.472 770.935 18.096 768.599 18.096Z" fill="black"/>
<path d="M862.024 60V21.12H867.448V38.4H869.464L876.424 21.12H881.848L874.168 39.6L882.808 60H877.384L869.512 41.04H867.448V60H862.024ZM885.919 66.816V62.64C886.367 62.672 886.767 62.704 887.119 62.736C887.503 62.768 887.855 62.784 888.175 62.784C888.847 62.784 889.423 62.688 889.903 62.496C890.415 62.304 890.847 62.016 891.199 61.632C891.551 61.248 891.807 60.8 891.967 60.288C892.159 59.776 892.255 59.216 892.255 58.608C892.255 58.192 892.223 57.744 892.159 57.264C892.127 56.784 892.063 56.256 891.967 55.68L884.287 21.12H889.423L892.687 37.68L894.655 50.016L896.383 37.776L899.311 21.12H904.495L897.967 53.808C897.455 56.368 896.959 58.496 896.479 60.192C895.999 61.92 895.439 63.28 894.799 64.272C894.191 65.264 893.407 65.968 892.447 66.384C891.519 66.832 890.335 67.056 888.895 67.056C888.607 67.056 888.191 67.024 887.647 66.96C887.135 66.928 886.559 66.88 885.919 66.816ZM908.102 60V21.12H917.75C920.086 21.12 921.942 21.552 923.318 22.416C924.726 23.248 925.75 24.464 926.39 26.064C927.03 27.664 927.35 29.6 927.35 31.872C927.35 33.92 926.982 35.696 926.246 37.2C925.542 38.704 924.486 39.872 923.078 40.704C921.67 41.504 919.91 41.904 917.798 41.904H913.526V60H908.102ZM913.526 38.016H916.022C917.59 38.016 918.822 37.84 919.718 37.488C920.614 37.136 921.254 36.528 921.638 35.664C922.022 34.768 922.214 33.52 922.214 31.92C922.214 30.064 922.07 28.64 921.782 27.648C921.526 26.656 920.966 25.968 920.102 25.584C919.238 25.2 917.894 25.008 916.07 25.008H913.526V38.016ZM926.896 60L935.152 21.12H940.384L948.688 60H943.552L941.776 50.208H933.856L931.984 60H926.896ZM934.576 46.32H941.056L937.792 28.8L934.576 46.32ZM954.937 60V25.152H948.361V21.12H966.745V25.152H960.361V60H954.937ZM980.429 60.432C977.805 60.432 975.709 59.92 974.141 58.896C972.573 57.872 971.453 56.416 970.781 54.528C970.109 52.608 969.773 50.368 969.773 47.808V33.072C969.773 30.512 970.109 28.32 970.781 26.496C971.485 24.64 972.605 23.232 974.141 22.272C975.709 21.28 977.805 20.784 980.429 20.784C983.053 20.784 985.133 21.28 986.669 22.272C988.205 23.264 989.309 24.672 989.981 26.496C990.685 28.32 991.037 30.512 991.037 33.072V47.856C991.037 50.384 990.685 52.592 989.981 54.48C989.309 56.368 988.205 57.84 986.669 58.896C985.133 59.92 983.053 60.432 980.429 60.432ZM980.429 56.16C981.869 56.16 982.957 55.872 983.693 55.296C984.429 54.688 984.925 53.856 985.181 52.8C985.437 51.712 985.565 50.448 985.565 49.008V31.968C985.565 30.528 985.437 29.296 985.181 28.272C984.925 27.216 984.429 26.416 983.693 25.872C982.957 25.296 981.869 25.008 980.429 25.008C978.989 25.008 977.885 25.296 977.117 25.872C976.381 26.416 975.885 27.216 975.629 28.272C975.373 29.296 975.245 30.528 975.245 31.968V49.008C975.245 50.448 975.373 51.712 975.629 52.8C975.885 53.856 976.381 54.688 977.117 55.296C977.885 55.872 978.989 56.16 980.429 56.16ZM996.368 60V21.12H1006.02C1008.35 21.12 1010.21 21.552 1011.58 22.416C1012.99 23.248 1014.02 24.464 1014.66 26.064C1015.3 27.664 1015.62 29.6 1015.62 31.872C1015.62 33.92 1015.25 35.696 1014.51 37.2C1013.81 38.704 1012.75 39.872 1011.34 40.704C1009.94 41.504 1008.18 41.904 1006.06 41.904H1001.79V60H996.368ZM1001.79 38.016H1004.29C1005.86 38.016 1007.09 37.84 1007.98 37.488C1008.88 37.136 1009.52 36.528 1009.9 35.664C1010.29 34.768 1010.48 33.52 1010.48 31.92C1010.48 30.064 1010.34 28.64 1010.05 27.648C1009.79 26.656 1009.23 25.968 1008.37 25.584C1007.5 25.2 1006.16 25.008 1004.34 25.008H1001.79V38.016ZM1019.29 40.08V34.608H1024.47V40.08H1019.29ZM1019.29 55.392V49.92H1024.47V55.392H1019.29Z" fill="black"/>
<path d="M492.024 120V81.12H508.728V85.056H497.448V97.296H498.648C501.464 97.296 503.784 97.632 505.608 98.304C507.464 98.944 508.84 100.08 509.736 101.712C510.664 103.344 511.128 105.648 511.128 108.624C511.128 110.64 510.888 112.368 510.408 113.808C509.928 115.216 509.176 116.384 508.152 117.312C507.16 118.24 505.896 118.928 504.36 119.376C502.856 119.792 501.048 120 498.936 120H492.024ZM497.448 116.112H498.984C500.584 116.112 501.896 115.936 502.92 115.584C503.976 115.2 504.744 114.464 505.224 113.376C505.736 112.288 505.992 110.688 505.992 108.576C505.992 105.92 505.48 104.032 504.456 102.912C503.464 101.792 501.592 101.232 498.84 101.232H497.448V116.112ZM514.687 120V116.352L524.575 100.944C525.311 99.792 525.983 98.72 526.591 97.728C527.231 96.736 527.743 95.696 528.127 94.608C528.543 93.488 528.751 92.208 528.751 90.768C528.751 88.976 528.463 87.568 527.887 86.544C527.311 85.52 526.303 85.008 524.863 85.008C523.647 85.008 522.703 85.344 522.031 86.016C521.359 86.688 520.895 87.568 520.639 88.656C520.383 89.744 520.255 90.912 520.255 92.16V93.456H515.119V92.112C515.119 89.776 515.423 87.776 516.031 86.112C516.671 84.416 517.679 83.104 519.055 82.176C520.463 81.248 522.319 80.784 524.623 80.784C527.759 80.784 530.095 81.68 531.631 83.472C533.167 85.232 533.935 87.68 533.935 90.816C533.935 92.48 533.727 93.936 533.311 95.184C532.927 96.432 532.415 97.6 531.775 98.688C531.135 99.776 530.431 100.896 529.663 102.048L520.735 115.68H533.023V120H514.687ZM548.513 120V109.584H537.233V104.208L547.361 81.12H553.409V105.024H557.777V109.584H553.409V120H548.513ZM542.177 105.024H548.513V87.36L542.177 105.024ZM561.06 126.816V122.64C561.508 122.672 561.908 122.704 562.26 122.736C562.644 122.768 562.996 122.784 563.316 122.784C563.988 122.784 564.564 122.688 565.044 122.496C565.556 122.304 565.988 122.016 566.34 121.632C566.692 121.248 566.948 120.8 567.108 120.288C567.3 119.776 567.396 119.216 567.396 118.608C567.396 118.192 567.364 117.744 567.3 117.264C567.268 116.784 567.204 116.256 567.108 115.68L559.428 81.12H564.564L567.828 97.68L569.796 110.016L571.524 97.776L574.452 81.12H579.636L573.108 113.808C572.596 116.368 572.1 118.496 571.62 120.192C571.14 121.92 570.58 123.28 569.94 124.272C569.332 125.264 568.548 125.968 567.588 126.384C566.66 126.832 565.476 127.056 564.036 127.056C563.748 127.056 563.332 127.024 562.788 126.96C562.276 126.928 561.7 126.88 561.06 126.816ZM583.243 120V81.12H592.171C593.931 81.12 595.451 81.312 596.731 81.696C598.043 82.08 599.131 82.672 599.995 83.472C600.859 84.272 601.499 85.296 601.915 86.544C602.331 87.76 602.539 89.2 602.539 90.864C602.539 92.464 602.331 93.856 601.915 95.04C601.531 96.192 600.923 97.104 600.091 97.776C599.291 98.448 598.251 98.88 596.971 99.072C598.539 99.424 599.803 100.032 600.763 100.896C601.723 101.728 602.427 102.816 602.875 104.16C603.355 105.472 603.595 107.056 603.595 108.912C603.595 110.576 603.403 112.096 603.019 113.472C602.635 114.848 602.027 116.016 601.195 116.976C600.395 117.936 599.355 118.688 598.075 119.232C596.827 119.744 595.339 120 593.611 120H583.243ZM588.667 116.112H592.315C594.747 116.112 596.363 115.552 597.163 114.432C597.995 113.28 598.411 111.44 598.411 108.912C598.411 107.28 598.187 105.92 597.739 104.832C597.323 103.712 596.635 102.88 595.675 102.336C594.747 101.76 593.483 101.472 591.883 101.472H588.667V116.112ZM588.667 97.344H591.883C593.419 97.344 594.619 97.136 595.483 96.72C596.347 96.272 596.955 95.568 597.307 94.608C597.659 93.648 597.835 92.4 597.835 90.864C597.835 89.072 597.563 87.776 597.019 86.976C596.475 86.176 595.627 85.68 594.475 85.488C593.323 85.264 591.819 85.152 589.963 85.152H588.667V97.344ZM608.415 120V81.12H613.839V98.4H615.855L622.815 81.12H628.239L620.559 99.6L629.199 120H623.775L615.903 101.04H613.839V120H608.415ZM632.79 120V81.12H637.59V108.048L648.966 81.12H652.854V120H648.102V92.64L636.822 120H632.79ZM655.922 126.432V122.544H672.434V126.432H655.922ZM684.854 120.432C682.646 120.432 680.822 119.936 679.382 118.944C677.974 117.952 676.918 116.592 676.214 114.864C675.542 113.136 675.206 111.168 675.206 108.96V92.208C675.206 89.936 675.542 87.952 676.214 86.256C676.886 84.528 677.926 83.184 679.334 82.224C680.774 81.264 682.614 80.784 684.854 80.784C687.094 80.784 688.918 81.264 690.326 82.224C691.734 83.184 692.774 84.528 693.446 86.256C694.118 87.952 694.454 89.936 694.454 92.208V108.96C694.454 111.2 694.102 113.184 693.398 114.912C692.726 116.64 691.686 118 690.278 118.992C688.87 119.952 687.062 120.432 684.854 120.432ZM684.854 116.208C686.07 116.208 686.982 115.856 687.59 115.152C688.23 114.448 688.662 113.552 688.886 112.464C689.142 111.344 689.27 110.192 689.27 109.008V92.16C689.27 90.912 689.158 89.744 688.934 88.656C688.71 87.536 688.278 86.64 687.638 85.968C687.03 85.296 686.102 84.96 684.854 84.96C683.606 84.96 682.662 85.296 682.022 85.968C681.382 86.64 680.95 87.536 680.726 88.656C680.502 89.744 680.39 90.912 680.39 92.16V109.008C680.39 110.192 680.502 111.344 680.726 112.464C680.982 113.552 681.43 114.448 682.07 115.152C682.742 115.856 683.67 116.208 684.854 116.208ZM699.187 120V116.352L709.075 100.944C709.811 99.792 710.483 98.72 711.091 97.728C711.731 96.736 712.243 95.696 712.627 94.608C713.043 93.488 713.251 92.208 713.251 90.768C713.251 88.976 712.963 87.568 712.387 86.544C711.811 85.52 710.803 85.008 709.363 85.008C708.147 85.008 707.203 85.344 706.531 86.016C705.859 86.688 705.395 87.568 705.139 88.656C704.883 89.744 704.755 90.912 704.755 92.16V93.456H699.619V92.112C699.619 89.776 699.923 87.776 700.531 86.112C701.171 84.416 702.179 83.104 703.555 82.176C704.963 81.248 706.819 80.784 709.123 80.784C712.259 80.784 714.595 81.68 716.131 83.472C717.667 85.232 718.435 87.68 718.435 90.816C718.435 92.48 718.227 93.936 717.811 95.184C717.427 96.432 716.915 97.6 716.275 98.688C715.635 99.776 714.931 100.896 714.163 102.048L705.235 115.68H717.523V120H699.187Z" fill="black"/>
<path d="M862.024 121V82.12H867.448V99.4H869.464L876.424 82.12H881.848L874.168 100.6L882.808 121H877.384L869.512 102.04H867.448V121H862.024ZM884.287 121L892.543 82.12H897.775L906.079 121H900.943L899.167 111.208H891.247L889.375 121H884.287ZM891.967 107.32H898.447L895.183 89.8L891.967 107.32ZM909.928 121L910.648 82.12H915.976L922.84 113.656L929.752 82.12H935.032L935.752 121H931.384L930.952 92.776L924.376 121H921.304L914.776 92.776L914.344 121H909.928ZM941.712 121V82.12H946.512V109.048L957.888 82.12H961.776V121H957.024V93.64L945.743 121H941.712ZM964.94 121V116.968C965.644 117 966.284 116.952 966.86 116.824C967.468 116.696 967.996 116.392 968.444 115.912C968.924 115.432 969.34 114.68 969.692 113.656C970.044 112.632 970.348 111.24 970.604 109.48C970.86 107.72 971.084 105.496 971.276 102.808L972.572 82.12H989.66V121H984.236V86.152H977.228L976.316 102.808C976.156 105.304 975.948 107.56 975.692 109.576C975.436 111.56 975.052 113.304 974.54 114.808C974.06 116.28 973.404 117.512 972.572 118.504C971.772 119.464 970.748 120.152 969.5 120.568C968.252 120.984 966.732 121.128 964.94 121ZM993.646 121L1001.9 82.12H1007.13L1015.44 121H1010.3L1008.53 111.208H1000.61L998.734 121H993.646ZM1001.33 107.32H1007.81L1004.54 89.8L1001.33 107.32ZM1030.35 121V82.12H1040C1042.34 82.12 1044.19 82.552 1045.57 83.416C1046.98 84.248 1048 85.464 1048.64 87.064C1049.28 88.664 1049.6 90.6 1049.6 92.872C1049.6 94.92 1049.23 96.696 1048.5 98.2C1047.79 99.704 1046.74 100.872 1045.33 101.704C1043.92 102.504 1042.16 102.904 1040.05 102.904H1035.78V121H1030.35ZM1035.78 99.016H1038.27C1039.84 99.016 1041.07 98.84 1041.97 98.488C1042.86 98.136 1043.5 97.528 1043.89 96.664C1044.27 95.768 1044.46 94.52 1044.46 92.92C1044.46 91.064 1044.32 89.64 1044.03 88.648C1043.78 87.656 1043.22 86.968 1042.35 86.584C1041.49 86.2 1040.14 86.008 1038.32 86.008H1035.78V99.016ZM1053.41 121V82.12H1058.21V109.048L1069.59 82.12H1073.48V121H1068.73V93.64L1057.45 121H1053.41ZM1077.17 121L1085.28 100.648L1077.31 82.12H1082.35L1088.26 95.848L1093.63 82.12H1098.67L1090.51 101.08L1099.06 121H1094.02L1087.68 106.36L1082.21 121H1077.17ZM1107 121V86.152H1100.42V82.12H1118.81V86.152H1112.42V121H1107ZM1122.18 121V82.12H1137.25V86.152H1127.6V99.016H1135.43V102.856H1127.6V117.112H1137.35V121H1122.18ZM1141.73 121V82.12H1151.38C1153.71 82.12 1155.57 82.552 1156.94 83.416C1158.35 84.248 1159.38 85.464 1160.02 87.064C1160.66 88.664 1160.98 90.6 1160.98 92.872C1160.98 94.92 1160.61 96.696 1159.87 98.2C1159.17 99.704 1158.11 100.872 1156.7 101.704C1155.3 102.504 1153.54 102.904 1151.42 102.904H1147.15V121H1141.73ZM1147.15 99.016H1149.65C1151.22 99.016 1152.45 98.84 1153.34 98.488C1154.24 98.136 1154.88 97.528 1155.26 96.664C1155.65 95.768 1155.84 94.52 1155.84 92.92C1155.84 91.064 1155.7 89.64 1155.41 88.648C1155.15 87.656 1154.59 86.968 1153.73 86.584C1152.86 86.2 1151.52 86.008 1149.7 86.008H1147.15V99.016Z" fill="black"/>
<path d="M859.912 186L868.168 147.12H873.4L881.704 186H876.568L874.792 176.208H866.872L865 186H859.912ZM867.592 172.32H874.072L870.808 154.8L867.592 172.32ZM885.649 186V147.12H891.073V163.92H901.057V147.12H906.481V186H901.057V167.808H891.073V186H885.649ZM912.555 186V147.12H917.979V163.92H927.963V147.12H933.387V186H927.963V167.808H917.979V186H912.555ZM937.35 186L945.606 147.12H950.838L959.142 186H954.006L952.23 176.208H944.31L942.438 186H937.35ZM945.03 172.32H951.51L948.246 154.8L945.03 172.32ZM974.055 186V147.12H979.479V164.4H981.495L988.455 147.12H993.879L986.199 165.6L994.839 186H989.415L981.543 167.04H979.479V186H974.055ZM1008.37 186.432C1005.74 186.432 1003.65 185.92 1002.08 184.896C1000.51 183.872 999.39 182.416 998.718 180.528C998.046 178.608 997.71 176.368 997.71 173.808V159.072C997.71 156.512 998.046 154.32 998.718 152.496C999.422 150.64 1000.54 149.232 1002.08 148.272C1003.65 147.28 1005.74 146.784 1008.37 146.784C1010.99 146.784 1013.07 147.28 1014.61 148.272C1016.14 149.264 1017.25 150.672 1017.92 152.496C1018.62 154.32 1018.97 156.512 1018.97 159.072V173.856C1018.97 176.384 1018.62 178.592 1017.92 180.48C1017.25 182.368 1016.14 183.84 1014.61 184.896C1013.07 185.92 1010.99 186.432 1008.37 186.432ZM1008.37 182.16C1009.81 182.16 1010.89 181.872 1011.63 181.296C1012.37 180.688 1012.86 179.856 1013.12 178.8C1013.37 177.712 1013.5 176.448 1013.5 175.008V157.968C1013.5 156.528 1013.37 155.296 1013.12 154.272C1012.86 153.216 1012.37 152.416 1011.63 151.872C1010.89 151.296 1009.81 151.008 1008.37 151.008C1006.93 151.008 1005.82 151.296 1005.05 151.872C1004.32 152.416 1003.82 153.216 1003.57 154.272C1003.31 155.296 1003.18 156.528 1003.18 157.968V175.008C1003.18 176.448 1003.31 177.712 1003.57 178.8C1003.82 179.856 1004.32 180.688 1005.05 181.296C1005.82 181.872 1006.93 182.16 1008.37 182.16ZM1024.21 186L1024.93 147.12H1030.26L1037.12 178.656L1044.03 147.12H1049.31L1050.03 186H1045.67L1045.23 157.776L1038.66 186H1035.59L1029.06 157.776L1028.63 186H1024.21ZM1055.99 186V147.12H1061.42V164.4H1063.43L1070.39 147.12H1075.82L1068.14 165.6L1076.78 186H1071.35L1063.48 167.04H1061.42V186H1055.99ZM1090.3 186.432C1087.68 186.432 1085.58 185.92 1084.02 184.896C1082.45 183.872 1081.33 182.416 1080.66 180.528C1079.98 178.608 1079.65 176.368 1079.65 173.808V159.072C1079.65 156.512 1079.98 154.32 1080.66 152.496C1081.36 150.64 1082.48 149.232 1084.02 148.272C1085.58 147.28 1087.68 146.784 1090.3 146.784C1092.93 146.784 1095.01 147.28 1096.54 148.272C1098.08 149.264 1099.18 150.672 1099.86 152.496C1100.56 154.32 1100.91 156.512 1100.91 159.072V173.856C1100.91 176.384 1100.56 178.592 1099.86 180.48C1099.18 182.368 1098.08 183.84 1096.54 184.896C1095.01 185.92 1092.93 186.432 1090.3 186.432ZM1090.3 182.16C1091.74 182.16 1092.83 181.872 1093.57 181.296C1094.3 180.688 1094.8 179.856 1095.06 178.8C1095.31 177.712 1095.44 176.448 1095.44 175.008V157.968C1095.44 156.528 1095.31 155.296 1095.06 154.272C1094.8 153.216 1094.3 152.416 1093.57 151.872C1092.83 151.296 1091.74 151.008 1090.3 151.008C1088.86 151.008 1087.76 151.296 1086.99 151.872C1086.26 152.416 1085.76 153.216 1085.5 154.272C1085.25 155.296 1085.12 156.528 1085.12 157.968V175.008C1085.12 176.448 1085.25 177.712 1085.5 178.8C1085.76 179.856 1086.26 180.688 1086.99 181.296C1087.76 181.872 1088.86 182.16 1090.3 182.16ZM1106.24 186V147.12H1115.17C1116.93 147.12 1118.45 147.312 1119.73 147.696C1121.04 148.08 1122.13 148.672 1122.99 149.472C1123.86 150.272 1124.5 151.296 1124.91 152.544C1125.33 153.76 1125.54 155.2 1125.54 156.864C1125.54 158.464 1125.33 159.856 1124.91 161.04C1124.53 162.192 1123.92 163.104 1123.09 163.776C1122.29 164.448 1121.25 164.88 1119.97 165.072C1121.54 165.424 1122.8 166.032 1123.76 166.896C1124.72 167.728 1125.43 168.816 1125.87 170.16C1126.35 171.472 1126.59 173.056 1126.59 174.912C1126.59 176.576 1126.4 178.096 1126.02 179.472C1125.63 180.848 1125.03 182.016 1124.19 182.976C1123.39 183.936 1122.35 184.688 1121.07 185.232C1119.83 185.744 1118.34 186 1116.61 186H1106.24ZM1111.67 182.112H1115.31C1117.75 182.112 1119.36 181.552 1120.16 180.432C1120.99 179.28 1121.41 177.44 1121.41 174.912C1121.41 173.28 1121.19 171.92 1120.74 170.832C1120.32 169.712 1119.63 168.88 1118.67 168.336C1117.75 167.76 1116.48 167.472 1114.88 167.472H1111.67V182.112ZM1111.67 163.344H1114.88C1116.42 163.344 1117.62 163.136 1118.48 162.72C1119.35 162.272 1119.95 161.568 1120.31 160.608C1120.66 159.648 1120.83 158.4 1120.83 156.864C1120.83 155.072 1120.56 153.776 1120.02 152.976C1119.47 152.176 1118.63 151.68 1117.47 151.488C1116.32 151.264 1114.82 151.152 1112.96 151.152H1111.67V163.344ZM1129.26 186L1137.51 147.12H1142.74L1151.05 186H1145.91L1144.14 176.208H1136.22L1134.34 186H1129.26ZM1136.94 172.32H1143.42L1140.15 154.8L1136.94 172.32Z" fill="black"/>
<g clip-path="url(#clip0_311_3618)">
<path d="M47.2868 66.3414H39.0599V101.306H27V21.748H39.0599V53.6272H47.2868V21.748H59.3466V101.399H47.2868V66.3414Z" fill="black"/>
<path d="M80.1004 102.241H77.7632C68.134 102.241 62.9922 97.0053 62.9922 87.1891V71.2027H74.9586V85.1323C74.9586 88.7784 76.1739 90.7416 78.885 90.7416C81.7832 90.7416 82.8115 88.7784 82.8115 83.917V82.1408C82.8115 76.438 82.2506 74.4748 77.8567 68.7721L70.2842 58.7689C65.1424 52.1313 63.6466 46.9895 63.6466 39.0431V36.5189C63.6466 25.9548 68.9754 21 78.5111 21H80.7548C90.6645 21 94.5909 25.3939 94.5909 34.8361V47.9244H82.905V36.4254C82.905 33.7143 82.3441 31.751 79.446 31.751C76.5479 31.751 75.8934 33.5273 75.8934 37.3603V38.8561C75.8934 43.3435 76.7348 45.7742 80.8483 51.1029L88.5142 61.0126C93.9365 68.1176 95.7128 72.1376 95.7128 81.1124V83.6366C95.7128 95.3225 90.6645 102.241 80.1004 102.241Z" fill="black"/>
<path d="M126.658 21.748V33.3404H111.233V54.1881H123.293V66.248H111.233V89.2458H127.313V101.306H99.1729V21.748H126.658Z" fill="black"/>
<path d="M159.939 86.3476H151.152L149.562 101.306H138.718L148.44 21.6544H162.744L173.121 101.306H161.435L159.939 86.3476ZM158.631 74.4747L155.452 45.0262L152.367 74.4747H158.631Z" fill="black"/>
<path d="M187.238 101.399H175.178V21.748H194.81C202.85 21.748 206.87 25.207 206.87 34.0883V48.2049C206.87 54.8425 203.785 57.3667 201.635 58.395C204.346 59.6104 206.87 61.7606 206.87 67.0893V95.0421C206.87 98.2206 207.524 99.7164 208.085 100.932V101.493H196.119C195.558 100.651 194.904 99.249 194.904 94.9486V70.8288C194.904 67.2763 194.249 65.7805 190.416 65.7805H187.331L187.238 101.399ZM187.238 54.4685H190.416C193.782 54.4685 194.81 52.3183 194.81 48.7658V37.6408C194.81 34.1818 194.062 32.499 190.416 32.499H187.238V54.4685Z" fill="black"/>
<path d="M231.27 33.2469V101.306H219.303V33.2469H209.113V21.748H241.46V33.3404L231.27 33.2469Z" fill="black"/>
<path d="M273.807 86.3476H265.019L263.429 101.306H252.585L262.308 21.6544H276.611L286.988 101.306H275.302L273.807 86.3476ZM272.498 74.4747L269.319 45.0262L266.234 74.4747H272.498Z" fill="black"/>
<path d="M299.89 21.748L310.267 64.4717V21.748H321.299V101.399H311.483L299.89 55.5904V101.399H288.952V21.748H299.89Z" fill="black"/>
<path d="M325.785 21.748H344.389C354.766 21.748 357.945 27.6377 357.945 37.0799V85.5998C357.945 95.3225 354.299 101.399 344.389 101.399H325.879V21.748H325.785ZM337.939 89.8068H340.837C344.483 89.8068 345.511 87.8435 345.511 83.6366V38.7627C345.511 34.1818 344.296 32.5925 341.304 32.5925H337.845V89.8068H337.939Z" fill="black"/>
<path d="M27 105.513H45.5105C55.8876 105.513 59.0662 111.402 59.0662 120.845V169.364C59.0662 179.087 55.4202 185.164 45.5105 185.164H27V105.513ZM39.0599 173.665H41.958C45.604 173.665 46.6324 171.702 46.6324 167.495V122.621C46.6324 118.04 45.417 116.451 42.4254 116.451H38.9664V173.665H39.0599Z" fill="black"/>
<path d="M90.946 105.513V117.105H75.5205V137.953H87.5804V150.013H75.5205V173.01H91.6004V185.07H63.3672V105.513H90.946Z" fill="black"/>
<path d="M110.858 186.005H108.521C98.8918 186.005 93.75 180.77 93.75 170.954V154.967H105.716V168.897C105.716 172.543 106.932 174.506 109.643 174.506C112.541 174.506 113.569 172.543 113.569 167.682V165.905C113.569 160.203 113.008 158.239 108.614 152.537L100.949 142.721C95.8067 136.083 94.3109 130.941 94.3109 122.995V120.471C94.3109 109.907 99.6397 104.952 109.175 104.952H111.419C121.422 104.952 125.255 109.346 125.255 118.788V131.876H113.569V120.377C113.569 117.666 113.008 115.703 110.11 115.703C107.212 115.703 106.558 117.479 106.558 121.312V122.808C106.558 127.295 107.399 129.726 111.513 135.055L119.179 144.964C124.601 152.069 126.377 156.089 126.377 165.064V167.588C126.471 179.087 121.422 186.005 110.858 186.005Z" fill="black"/>
<path d="M141.99 185.164H129.93V105.513H141.99V185.164Z" fill="black"/>
<path d="M157.696 186.286C150.591 186.286 146.104 179.928 146.104 171.702V121.873C146.104 112.992 149.563 104.765 160.968 104.765H163.305C176.3 104.765 177.796 113.178 177.796 122.621V130.754H166.016V121.779C166.016 118.227 165.175 116.357 162.183 116.357C159.659 116.357 158.444 118.32 158.444 121.779V168.336C158.444 172.076 159.94 174.039 162.37 174.039C165.455 174.039 166.858 171.889 166.858 168.897V148.984H161.435V136.737H178.357V185.164H171.532C171.439 184.696 170.504 180.77 169.475 177.311C168.634 180.022 164.521 186.192 158.444 186.192H157.696V186.286Z" fill="black"/>
<path d="M193.502 105.513L203.879 148.236V105.513H214.91V185.164H205.094L193.502 139.355V185.164H182.563V105.513H193.502Z" fill="black"/>
<path d="M246.509 186.005H244.171C234.542 186.005 229.4 180.77 229.4 170.954V154.967H241.367V168.897C241.367 172.543 242.582 174.506 245.293 174.506C248.191 174.506 249.22 172.543 249.22 167.682V165.905C249.22 160.203 248.659 158.239 244.265 152.537L236.599 142.721C231.457 136.083 229.961 130.941 229.961 122.995V120.471C229.961 109.907 235.29 104.952 244.826 104.952H247.07C256.979 104.952 260.906 109.346 260.906 118.788V131.876H249.22V120.377C249.22 117.666 248.659 115.703 245.761 115.703C242.863 115.703 242.208 117.479 242.208 121.312V122.808C242.208 127.295 243.05 129.726 247.163 135.055L254.829 144.964C260.251 152.069 262.027 156.089 262.027 165.064V167.588C262.121 179.087 257.073 186.005 246.509 186.005Z" fill="black"/>
<path d="M285.306 168.991V150.48H297.178V168.897C297.178 177.498 294.374 186.099 282.688 186.099H279.977C267.73 186.099 265.112 177.311 265.112 169.271V120.658C265.112 112.524 268.665 104.671 279.603 104.671H282.407C295.683 104.671 297.178 113.459 297.178 121.218V135.429H285.306V121.405C285.306 117.946 284.277 116.17 281.192 116.17C278.201 116.17 277.453 117.853 277.453 121.405V168.71C277.453 172.263 278.668 174.132 281.286 174.132C284.277 174.413 285.306 172.263 285.306 168.991Z" fill="black"/>
<path d="M321.392 150.2H313.165V185.164H301.105V105.513H313.165V137.392H321.392V105.513H333.452V185.164H321.392V150.2Z" fill="black"/>
<path d="M370.753 167.401C370.753 178.526 367.013 186.099 355.327 186.099H353.271C341.678 186.099 337.658 178.526 337.658 167.401V123.088C337.658 112.057 341.865 104.765 353.177 104.765H355.234C367.013 104.765 370.753 112.057 370.753 122.995V167.401ZM358.412 122.434C358.412 118.227 357.01 116.357 354.205 116.357C351.12 116.357 349.905 118.414 349.905 122.434V168.243C349.905 171.702 350.84 174.319 354.299 174.319C357.478 174.319 358.412 171.608 358.412 168.243V122.434Z" fill="black"/>
<path d="M407.681 167.401C407.681 178.526 403.941 186.099 392.255 186.099H390.198C378.606 186.099 374.586 178.526 374.586 167.401V123.088C374.586 112.057 378.793 104.765 390.105 104.765H392.162C403.941 104.765 407.681 112.057 407.681 122.995V167.401ZM395.34 122.434C395.34 118.227 393.938 116.357 391.133 116.357C388.048 116.357 386.833 118.414 386.833 122.434V168.243C386.833 171.702 387.768 174.319 391.227 174.319C394.405 174.319 395.34 171.608 395.34 168.243V122.434Z" fill="black"/>
<path d="M423.948 105.513V172.824H438.719V185.164H411.888V105.513H423.948Z" fill="black"/>
<path fill-rule="evenodd" clip-rule="evenodd" d="M455.64 104.671C446.665 104.671 439.279 111.963 439.279 121.032C439.279 130.006 446.571 137.392 455.64 137.392C464.708 137.392 472 130.1 472 121.032C471.906 111.963 464.614 104.671 455.64 104.671Z" fill="white"/>
<path fill-rule="evenodd" clip-rule="evenodd" d="M458.351 119.536C459.379 119.068 460.034 118.414 460.501 117.946C461.342 117.012 461.623 115.89 461.623 114.768C461.623 113.926 461.342 112.15 459.847 110.935C458.818 110.093 457.883 109.72 455.64 109.72H454.518H454.424H449.75V131.596H462.932V127.389C463.025 123.369 461.716 120.658 458.351 119.536ZM460.034 130.38H457.603V123.088H454.892V130.38H452.835V110.748H454.985C455.827 110.748 457.042 110.935 457.883 111.963C458.351 112.524 458.631 113.272 458.725 113.926H454.892V115.048H458.725C458.725 115.703 458.538 116.544 457.883 117.385C457.322 118.133 456.294 118.788 454.892 118.788V119.91C458.631 119.91 460.034 122.34 460.034 126.921V130.38Z" fill="black"/>
</g>
<defs>
<linearGradient id="paint0_linear_311_3618" x1="1617" y1="367.22" x2="1617" y2="141.72" gradientUnits="userSpaceOnUse">
<stop stop-color="#EC1168"/>
<stop offset="1" stop-color="#F7CCDD"/>
</linearGradient>
<clipPath id="clip0_311_3618">
<rect width="445" height="165.286" fill="white" transform="translate(27 21)"/>
</clipPath>
</defs>
</svg>
